<mxfile host="app.diagrams.net" agent="Mozilla/5.0 (Windows NT 10.0; Win64; x64) AppleWebKit/537.36 (KHTML, like Gecko) Chrome/141.0.0.0 Safari/537.36" version="28.2.7">
  <diagram name="Página-1" id="bOgWaszpSxyYd5d7S5Jw">
    <mxGraphModel dx="1042" dy="527" grid="1" gridSize="10" guides="1" tooltips="1" connect="1" arrows="1" fold="1" page="1" pageScale="1" pageWidth="827" pageHeight="1169" math="0" shadow="0">
      <root>
        <mxCell id="0" />
        <mxCell id="1" parent="0" />
        <mxCell id="XDsHhs9EI-qGHduYArq1-1" value="" style="strokeWidth=1;shadow=0;dashed=0;align=center;html=1;shape=mxgraph.mockup.containers.browserWindow;rSize=0;strokeColor=#666666;strokeColor2=#008cff;strokeColor3=#c4c4c4;mainText=,;recursiveResize=0;" vertex="1" parent="1">
          <mxGeometry x="150" y="60" width="550" height="400" as="geometry" />
        </mxCell>
        <mxCell id="XDsHhs9EI-qGHduYArq1-2" value="Page 1" style="strokeWidth=1;shadow=0;dashed=0;align=center;html=1;shape=mxgraph.mockup.containers.anchor;fontSize=17;fontColor=#666666;align=left;whiteSpace=wrap;" vertex="1" parent="XDsHhs9EI-qGHduYArq1-1">
          <mxGeometry x="60" y="12" width="110" height="26" as="geometry" />
        </mxCell>
        <mxCell id="XDsHhs9EI-qGHduYArq1-3" value="https://www.draw.io" style="strokeWidth=1;shadow=0;dashed=0;align=center;html=1;shape=mxgraph.mockup.containers.anchor;rSize=0;fontSize=17;fontColor=#666666;align=left;" vertex="1" parent="XDsHhs9EI-qGHduYArq1-1">
          <mxGeometry x="130" y="60" width="250" height="26" as="geometry" />
        </mxCell>
        <mxCell id="XDsHhs9EI-qGHduYArq1-4" value="Modificar Usuarios" style="text;html=1;whiteSpace=wrap;strokeColor=none;fillColor=none;align=center;verticalAlign=middle;rounded=0;strokeWidth=5;fontSize=20;fontStyle=1" vertex="1" parent="XDsHhs9EI-qGHduYArq1-1">
          <mxGeometry x="100" y="130" width="350" height="20" as="geometry" />
        </mxCell>
        <mxCell id="XDsHhs9EI-qGHduYArq1-5" value="*Identificación" style="text;html=1;whiteSpace=wrap;strokeColor=none;fillColor=none;align=center;verticalAlign=middle;rounded=0;" vertex="1" parent="XDsHhs9EI-qGHduYArq1-1">
          <mxGeometry x="160" y="175" width="90" height="30" as="geometry" />
        </mxCell>
        <mxCell id="XDsHhs9EI-qGHduYArq1-6" value="*Primer Nombre" style="text;html=1;whiteSpace=wrap;strokeColor=none;fillColor=none;align=left;verticalAlign=middle;rounded=0;" vertex="1" parent="XDsHhs9EI-qGHduYArq1-1">
          <mxGeometry x="150" y="205" width="100" height="30" as="geometry" />
        </mxCell>
        <mxCell id="XDsHhs9EI-qGHduYArq1-13" value="Segundo Nombre" style="text;html=1;whiteSpace=wrap;strokeColor=none;fillColor=none;align=left;verticalAlign=middle;rounded=0;" vertex="1" parent="XDsHhs9EI-qGHduYArq1-1">
          <mxGeometry x="150" y="235" width="110" height="30" as="geometry" />
        </mxCell>
        <mxCell id="XDsHhs9EI-qGHduYArq1-14" value="*Primer Apellido" style="text;html=1;whiteSpace=wrap;strokeColor=none;fillColor=none;align=left;verticalAlign=middle;rounded=0;" vertex="1" parent="XDsHhs9EI-qGHduYArq1-1">
          <mxGeometry x="150" y="265" width="100" height="30" as="geometry" />
        </mxCell>
        <mxCell id="XDsHhs9EI-qGHduYArq1-15" value="Segundo Apellido" style="text;html=1;whiteSpace=wrap;strokeColor=none;fillColor=none;align=left;verticalAlign=middle;rounded=0;" vertex="1" parent="XDsHhs9EI-qGHduYArq1-1">
          <mxGeometry x="150" y="295" width="110" height="30" as="geometry" />
        </mxCell>
        <mxCell id="XDsHhs9EI-qGHduYArq1-16" value="" style="rounded=1;arcSize=9;fillColor=#F7F8F9;align=left;spacingLeft=5;strokeColor=#DEE1E6;html=1;strokeWidth=2;fontColor=#596780;fontSize=12" vertex="1" parent="XDsHhs9EI-qGHduYArq1-1">
          <mxGeometry x="250" y="180" width="180" height="20" as="geometry" />
        </mxCell>
        <mxCell id="XDsHhs9EI-qGHduYArq1-17" value="" style="rounded=1;arcSize=9;fillColor=#F7F8F9;align=left;spacingLeft=5;strokeColor=#DEE1E6;html=1;strokeWidth=2;fontColor=#596780;fontSize=12" vertex="1" parent="XDsHhs9EI-qGHduYArq1-1">
          <mxGeometry x="250" y="210" width="180" height="20" as="geometry" />
        </mxCell>
        <mxCell id="XDsHhs9EI-qGHduYArq1-18" value="" style="rounded=1;arcSize=9;fillColor=#F7F8F9;align=left;spacingLeft=5;strokeColor=#DEE1E6;html=1;strokeWidth=2;fontColor=#596780;fontSize=12" vertex="1" parent="XDsHhs9EI-qGHduYArq1-1">
          <mxGeometry x="250" y="240" width="180" height="20" as="geometry" />
        </mxCell>
        <mxCell id="XDsHhs9EI-qGHduYArq1-19" value="" style="rounded=1;arcSize=9;fillColor=#F7F8F9;align=left;spacingLeft=5;strokeColor=#DEE1E6;html=1;strokeWidth=2;fontColor=#596780;fontSize=12" vertex="1" parent="XDsHhs9EI-qGHduYArq1-1">
          <mxGeometry x="250" y="270" width="180" height="20" as="geometry" />
        </mxCell>
        <mxCell id="XDsHhs9EI-qGHduYArq1-20" value="" style="rounded=1;arcSize=9;fillColor=#F7F8F9;align=left;spacingLeft=5;strokeColor=#DEE1E6;html=1;strokeWidth=2;fontColor=#596780;fontSize=12" vertex="1" parent="XDsHhs9EI-qGHduYArq1-1">
          <mxGeometry x="250" y="300" width="180" height="20" as="geometry" />
        </mxCell>
        <mxCell id="XDsHhs9EI-qGHduYArq1-21" value="Modificar" style="rounded=1;fillColor=#0057D8;strokeColor=none;html=1;whiteSpace=wrap;fontColor=#ffffff;align=center;verticalAlign=middle;fontStyle=0;fontSize=12;sketch=0;" vertex="1" parent="XDsHhs9EI-qGHduYArq1-1">
          <mxGeometry x="320" y="350" width="110" height="40" as="geometry" />
        </mxCell>
        <mxCell id="XDsHhs9EI-qGHduYArq1-22" value="Cancelar" style="rounded=1;fillColor=#647687;strokeColor=#314354;html=1;whiteSpace=wrap;align=center;verticalAlign=middle;fontStyle=0;fontSize=12;sketch=0;fontColor=#ffffff;" vertex="1" parent="XDsHhs9EI-qGHduYArq1-1">
          <mxGeometry x="145" y="350" width="110" height="40" as="geometry" />
        </mxCell>
      </root>
    </mxGraphModel>
  </diagram>
</mxfile>
